<?xml version="1.0" encoding="UTF-8" standalone="no"?>
<!-- Created with Inkscape (http://www.inkscape.org/) -->

<svg
   xmlns:dc="http://purl.org/dc/elements/1.1/"
   xmlns:cc="http://creativecommons.org/ns#"
   xmlns:rdf="http://www.w3.org/1999/02/22-rdf-syntax-ns#"
   xmlns:svg="http://www.w3.org/2000/svg"
   xmlns="http://www.w3.org/2000/svg"
   xmlns:sodipodi="http://sodipodi.sourceforge.net/DTD/sodipodi-0.dtd"
   xmlns:inkscape="http://www.inkscape.org/namespaces/inkscape"
   width="900"
   height="300"
   viewBox="0 0 900 300"
   id="svg2"
   version="1.1"
   inkscape:version="0.91 r13725"
   sodipodi:docname="Website-Logo-Banner-Publish.svg"
   inkscape:export-filename="/Users/lucashu/Google Drive/CAIS++/Graphics/Full-Logo-White-Transparent.png"
   inkscape:export-xdpi="300"
   inkscape:export-ydpi="300">
  <defs
     id="defs4" />
  <sodipodi:namedview
     id="base"
     pagecolor="#000000"
     bordercolor="#ffffff"
     borderopacity="1"
     inkscape:pageopacity="0"
     inkscape:pageshadow="2"
     inkscape:zoom="0.74474069"
     inkscape:cx="892.41171"
     inkscape:cy="134.81652"
     inkscape:document-units="px"
     inkscape:current-layer="flowRoot4920"
     showgrid="true"
     inkscape:window-width="1440"
     inkscape:window-height="776"
     inkscape:window-x="0"
     inkscape:window-y="1"
     inkscape:window-maximized="1"
     units="px"
     borderlayer="false"
     showguides="false"
     objecttolerance="10000"
     inkscape:snap-global="true"
     inkscape:snap-bbox="true"
     inkscape:snap-object-midpoints="true">
    <inkscape:grid
       type="xygrid"
       id="grid4156" />
  </sodipodi:namedview>
  <metadata
     id="metadata7">
    <rdf:RDF>
      <cc:Work
         rdf:about="">
        <dc:format>image/svg+xml</dc:format>
        <dc:type
           rdf:resource="http://purl.org/dc/dcmitype/StillImage" />
        <dc:title />
      </cc:Work>
    </rdf:RDF>
  </metadata>
  <g
     inkscape:label="Layer 1"
     inkscape:groupmode="layer"
     id="layer1"
     transform="translate(0,-752.36216)">
    <flowRoot
       xml:space="preserve"
       id="flowRoot4148"
       style="font-style:normal;font-variant:normal;font-weight:normal;font-stretch:normal;font-size:50.06499863px;line-height:125%;font-family:'ADAM.CG PRO';-inkscape-font-specification:'ADAM.CG PRO, Normal';text-align:start;letter-spacing:0px;word-spacing:0px;writing-mode:lr-tb;text-anchor:start;fill:#000000;fill-opacity:1;stroke:#000000;stroke-width:1px;stroke-linecap:butt;stroke-linejoin:miter;stroke-opacity:1"><flowRegion
         id="flowRegion4150"><rect
           id="rect4152"
           width="220"
           height="77.14286"
           x="400"
           y="378.07648"
           style="font-style:normal;font-variant:normal;font-weight:normal;font-stretch:normal;font-size:50.06499863px;line-height:125%;font-family:'ADAM.CG PRO';-inkscape-font-specification:'ADAM.CG PRO, Normal';text-align:start;writing-mode:lr-tb;text-anchor:start;stroke:#000000" /></flowRegion><flowPara
         id="flowPara4154" /></flowRoot>    <path
       style="fill:#000000;fill-rule:evenodd;stroke:#ffffff;stroke-width:4.38788509;stroke-linecap:butt;stroke-linejoin:miter;stroke-miterlimit:4;stroke-dasharray:none;stroke-opacity:1"
       d="M 45.90658,831.96611 75.64931,954.04627"
       id="path4880"
       inkscape:connector-curvature="0" />
    <path
       style="fill:none;fill-rule:evenodd;stroke:#ffffff;stroke-width:4.38788509;stroke-linecap:butt;stroke-linejoin:miter;stroke-miterlimit:4;stroke-dasharray:none;stroke-opacity:1"
       d="m 35.932067,860.64138 67.450463,98.1765"
       id="path4882"
       inkscape:connector-curvature="0" />
    <rect
       style="fill:none;fill-opacity:1;fill-rule:evenodd;stroke:#000000;stroke-width:5.39263248;stroke-miterlimit:4;stroke-dasharray:none;stroke-opacity:0"
       id="rect4896"
       width="894.00165"
       height="217.39703"
       x="82.901855"
       y="563.28284"
       ry="37.81422" />
    <path
       style="fill:#000000;fill-rule:evenodd;stroke:#ffffff;stroke-width:4.38788509;stroke-linecap:butt;stroke-linejoin:miter;stroke-miterlimit:4;stroke-dasharray:none;stroke-opacity:1"
       d="M 32.796348,886.91249 135.584,957.87066"
       id="path4884"
       inkscape:connector-curvature="0" />
    <path
       style="fill:#ad0000;fill-opacity:0;fill-rule:evenodd;stroke:#ffffff;stroke-width:4.38788509;stroke-linecap:butt;stroke-linejoin:miter;stroke-miterlimit:4;stroke-dasharray:none;stroke-opacity:1"
       d="m 38.61175,910.9399 113.59783,35.78792"
       id="path4147"
       inkscape:connector-curvature="0" />
    <ellipse
       style="fill:none;fill-opacity:1;fill-rule:evenodd;stroke:#ffffff;stroke-width:10.67027473;stroke-miterlimit:4;stroke-dasharray:none;stroke-opacity:1"
       id="path4876"
       cx="108.59048"
       cy="878.96771"
       rx="77.163948"
       ry="79.601059" />
    <g
       id="layer1-9"
       inkscape:label="Layer 1"
       transform="translate(-8.1465871,-140.50946)">
      <g
         style="font-style:normal;font-variant:normal;font-weight:normal;font-stretch:normal;font-size:50.06499863px;line-height:125%;font-family:'ADAM.CG PRO';-inkscape-font-specification:'ADAM.CG PRO, Normal';text-align:start;letter-spacing:0px;word-spacing:0px;writing-mode:lr-tb;text-anchor:start;fill:#000000;fill-opacity:1;stroke:#000000;stroke-width:1px;stroke-linecap:butt;stroke-linejoin:miter;stroke-opacity:1"
         id="flowRoot4148-8" />
      <g
         transform="matrix(4.9353657,0,0,4.9353657,-1281.4814,-1462.9963)"
         style="font-style:normal;font-variant:normal;font-weight:normal;font-stretch:normal;font-size:40px;line-height:125%;font-family:'ADAM.CG PRO';-inkscape-font-specification:'ADAM.CG PRO, Normal';text-align:center;letter-spacing:0px;word-spacing:0px;writing-mode:lr-tb;text-anchor:middle;fill:#ffffff;fill-opacity:1;stroke:#ffffff;stroke-width:1px;stroke-linecap:butt;stroke-linejoin:miter;stroke-opacity:1"
         id="flowRoot4886">
        <path
           d="m 330.16121,509.15016 c -0.32,0.4 -0.64,0.76 -1,1.12 -1.92,1.92 -4.48,3 -7.2,3 -2.72,0 -5.28,-1.08 -7.2,-3 -1.92,-1.92 -3,-4.48 -3,-7.2 0,-2.72 1.08,-5.28 3,-7.2 1.92,-1.96 4.48,-3 7.2,-3 2.4,0 4.64,0.8 6.44,2.28 l 0,-5.48 c -0.2,-0.08 -0.44,-0.2 -0.64,-0.28 -1.84,-0.8 -3.8,-1.16 -5.8,-1.16 -2,0 -3.96,0.36 -5.76,1.16 -1.8,0.72 -3.36,1.8 -4.72,3.16 -1.36,1.36 -2.44,2.96 -3.2,4.72 -0.76,1.84 -1.16,3.8 -1.16,5.8 0,2 0.4,3.96 1.16,5.76 0.76,1.8 1.84,3.36 3.2,4.72 1.36,1.36 2.92,2.44 4.72,3.2 1.8,0.76 3.76,1.16 5.76,1.16 2,0 3.96,-0.4 5.8,-1.16 0.84,-0.36 1.64,-0.8 2.4,-1.28 l 0,-6.32 z"
           style="font-style:normal;font-variant:normal;font-weight:normal;font-stretch:normal;font-size:40px;line-height:125%;font-family:'ADAM.CG PRO';-inkscape-font-specification:'ADAM.CG PRO, Normal';text-align:center;writing-mode:lr-tb;text-anchor:middle;fill:#ffffff;fill-opacity:1;stroke:#ffffff;stroke-opacity:1"
           id="path4292" />
        <path
           d="m 353.75809,517.91016 5.08,0 -12.88,-31.04 -12.92,31.04 5.12,0 2.52,-6.36 10.56,0 2.52,6.36 z m -11.4,-10.52 3.6,-9.04 3.6,9.04 -7.2,0 z"
           style="font-style:normal;font-variant:normal;font-weight:normal;font-stretch:normal;font-size:40px;line-height:125%;font-family:'ADAM.CG PRO';-inkscape-font-specification:'ADAM.CG PRO, Normal';text-align:center;writing-mode:lr-tb;text-anchor:middle;fill:#ffffff;fill-opacity:1;stroke:#ffffff;stroke-opacity:1"
           id="path4294" />
        <path
           d="m 367.61059,517.91016 0,-29.68 -4.64,0 0,29.68 4.64,0 z"
           style="font-style:normal;font-variant:normal;font-weight:normal;font-stretch:normal;font-size:40px;line-height:125%;font-family:'ADAM.CG PRO';-inkscape-font-specification:'ADAM.CG PRO, Normal';text-align:center;writing-mode:lr-tb;text-anchor:middle;fill:#ffffff;fill-opacity:1;stroke:#ffffff;stroke-opacity:1"
           id="path4296" />
        <path
           d="m 389.23559,507.79016 c -0.44,-1.4 -1.32,-2.72 -2.6,-3.88 -0.64,-0.6 -1.52,-1.44 -2.24,-2.16 l -4.96,-4.76 c -1.24,-1.2 -1.28,-2.12 -1.12,-2.68 0.24,-0.84 1.12,-1.52 2.16,-1.72 0.84,-0.16 2.4,-0.16 3.92,1.68 l 3.64,-2.92 c -1.16,-1.4 -2.52,-2.4 -4.04,-3 -1.44,-0.52 -2.96,-0.64 -4.4,-0.32 -1.32,0.24 -2.56,0.84 -3.56,1.68 -1.08,0.92 -1.84,2.04 -2.2,3.32 -0.36,1.2 -0.32,2.52 0.08,3.76 0.4,1.28 1.16,2.48 2.28,3.56 l 3.64,3.44 c 0.16,0.16 2.32,2.28 3.64,3.52 0.84,0.8 1.76,2 1.36,3.36 -0.36,1.2 -1.6,2.2 -3.12,2.48 -0.88,0.2 -1.84,0.12 -2.72,-0.24 -1.08,-0.4 -2.08,-1.2 -2.92,-2.32 l -3.68,2.88 c 1.4,1.8 3.04,3.04 4.92,3.8 1.12,0.44 2.32,0.64 3.52,0.64 0.6,0 1.2,-0.04 1.8,-0.16 3.24,-0.64 5.84,-2.92 6.68,-5.8 0.4,-1.36 0.36,-2.8 -0.08,-4.16 z"
           style="font-style:normal;font-variant:normal;font-weight:normal;font-stretch:normal;font-size:40px;line-height:125%;font-family:'ADAM.CG PRO';-inkscape-font-specification:'ADAM.CG PRO, Normal';text-align:center;writing-mode:lr-tb;text-anchor:middle;fill:#ffffff;fill-opacity:1;stroke:#ffffff;stroke-opacity:1"
           id="path4298" />
        <path
           d="m 413.16934,501.07016 -7.24,0 0,-7.24 -4,0 0,7.24 -7.24,0 0,4 7.24,0 0,7.24 4,0 0,-7.24 7.24,0 0,-4 z"
           style="font-style:normal;font-variant:normal;font-weight:normal;font-stretch:normal;font-size:40px;line-height:125%;font-family:'ADAM.CG PRO';-inkscape-font-specification:'ADAM.CG PRO, Normal';text-align:center;writing-mode:lr-tb;text-anchor:middle;fill:#ffffff;fill-opacity:1;stroke:#ffffff;stroke-opacity:1"
           id="path4300" />
        <path
           d="m 437.93496,501.07016 -7.24,0 0,-7.24 -4,0 0,7.24 -7.24,0 0,4 7.24,0 0,7.24 4,0 0,-7.24 7.24,0 0,-4 z"
           style="font-style:normal;font-variant:normal;font-weight:normal;font-stretch:normal;font-size:40px;line-height:125%;font-family:'ADAM.CG PRO';-inkscape-font-specification:'ADAM.CG PRO, Normal';text-align:center;writing-mode:lr-tb;text-anchor:middle;fill:#ffffff;fill-opacity:1;stroke:#ffffff;stroke-opacity:1"
           id="path4302" />
      </g>
      <path
         style="fill:none;fill-opacity:1;fill-rule:evenodd;stroke:#000000;stroke-width:5.39263248;stroke-miterlimit:4;stroke-dasharray:none;stroke-opacity:0"
         d="m 44.716076,917.28284 818.373204,0 c 20.94908,0 37.81422,16.86514 37.81422,37.81422 l 0,141.76864 c 0,20.949 -16.86514,37.8142 -37.81422,37.8142 l -818.373204,0 c -20.949078,0 -37.8142205,-16.8652 -37.8142205,-37.8142 l 0,-141.76864 c 0,-20.94908 16.8651425,-37.81422 37.8142205,-37.81422 z"
         id="rect4896-0" />
      <g
         transform="translate(-50,352)"
         style="font-style:normal;font-variant:normal;font-weight:normal;font-stretch:normal;font-size:37.5px;line-height:125%;font-family:'ADAM.CG PRO';-inkscape-font-specification:'ADAM.CG PRO, Normal';text-align:start;letter-spacing:0px;word-spacing:0px;writing-mode:lr-tb;text-anchor:start;fill:#ffffff;fill-opacity:1;stroke:#ffffff;stroke-width:1.24584186px;stroke-linecap:butt;stroke-linejoin:miter;stroke-opacity:1"
         id="flowRoot4920">
        <path
           d="m 105.17305,790.78359 c -0.3,0.375 -0.6,0.7125 -0.9375,1.05 -1.8,1.8 -4.2,2.8125 -6.750003,2.8125 -2.55,0 -4.95,-1.0125 -6.75,-2.8125 -1.8,-1.8 -2.8125,-4.2 -2.8125,-6.75 0,-2.55 1.0125,-4.95 2.8125,-6.75 1.8,-1.8375 4.2,-2.8125 6.75,-2.8125 2.25,0 4.350003,0.75 6.037503,2.1375 l 0,-5.1375 c -0.1875,-0.075 -0.4125,-0.1875 -0.6,-0.2625 -1.725,-0.75 -3.562503,-1.0875 -5.437503,-1.0875 -1.875,0 -3.7125,0.3375 -5.4,1.0875 -1.6875,0.675 -3.15,1.6875 -4.425,2.9625 -1.275,1.275 -2.2875,2.775 -3,4.425 -0.7125,1.725 -1.0875,3.5625 -1.0875,5.4375 0,1.875 0.375,3.7125 1.0875,5.4 0.7125,1.6875 1.725,3.15 3,4.425 1.275,1.275 2.7375,2.2875 4.425,3 1.6875,0.7125 3.525,1.0875 5.4,1.0875 1.875,0 3.712503,-0.375 5.437503,-1.0875 0.7875,-0.3375 1.5375,-0.75 2.25,-1.2 l 0,-5.925 z"
           style="stroke-width:1.24584186px"
           id="path4306" />
        <path
           d="m 114.50059,775.07109 12.3375,0 0,-3.9 -12.375,0 -4.3125,0 0,27.825 4.3125,0 12.375,0 0,-3.9375 -12.3375,0 0,-8.625 10.1625,0 0,-3.9375 -10.1625,0 0,-7.425 z"
           style="stroke-width:1.24584186px"
           id="path4308" />
        <path
           d="m 153.83926,800.27109 0,-29.1 -4.3875,0 0,17.85 -17.475,-19.1625 0,29.1375 4.35,0 0,-17.8875 17.5125,19.1625 z"
           style="stroke-width:1.24584186px"
           id="path4310" />
        <path
           d="m 177.5498,771.17109 -19.6875,0 0,3.9 7.65,0 0,23.925 4.3875,0 0,-23.925 7.65,0 0,-3.9 z"
           style="stroke-width:1.24584186px"
           id="path4312" />
        <path
           d="m 185.91172,775.07109 12.3375,0 0,-3.9 -12.375,0 -4.3125,0 0,27.825 4.3125,0 12.375,0 0,-3.9375 -12.3375,0 0,-8.625 10.1625,0 0,-3.9375 -10.1625,0 0,-7.425 z"
           style="stroke-width:1.24584186px"
           id="path4314" />
        <path
           d="m 215.35039,788.94609 c 1.5,-0.525 2.55,-1.3875 3.225,-2.1375 1.4625,-1.6125 2.25,-3.8625 2.25,-6.4125 0,-2.5875 -0.7875,-4.8375 -2.25,-6.45 -1.125,-1.275 -3.2625,-2.775 -6.9375,-2.775 l -4.575,0 -3.675,0 0,27.825 4.35,0 0,-9.4125 3.1875,0 7.0125,9.4125 4.9125,0 -7.5,-10.05 z m -7.6125,-3.2625 0,-10.575 3.9,0 c 1.8,0 3.15,0.4875 4.0125,1.4625 1.05,1.125 1.2375,2.7 1.2375,3.825 0,1.0875 -0.1875,2.6625 -1.2375,3.7875 -0.8625,0.975 -2.2125,1.5 -4.0125,1.5 l -3.9,0 z"
           style="stroke-width:1.24584186px"
           id="path4316" />
        <path
           d="m 243.04062,775.07109 12.375,0 0,-3.9 -12.4125,0 -4.3125,0 0,27.825 4.35,0 0,-12.5625 10.1625,0 0,-3.9375 -10.1625,0 0,-7.425 z"
           style="stroke-width:1.24584186px"
           id="path4318" />
        <path
           d="m 271.84473,798.99609 c 1.875,0 3.7125,-0.375 5.4375,-1.0875 1.65,-0.7125 3.1125,-1.725 4.425,-3 1.275,-1.275 2.25,-2.7375 2.9625,-4.425 0.7125,-1.6875 1.0875,-3.525 1.0875,-5.4 0,-1.875 -0.375,-3.7125 -1.0875,-5.4375 -0.7125,-1.65 -1.6875,-3.1125 -2.9625,-4.425 -1.3125,-1.275 -2.775,-2.25 -4.425,-2.9625 -1.725,-0.7125 -3.5625,-1.0875 -5.4375,-1.0875 -1.875,0 -3.7125,0.375 -5.4,1.0875 -1.6875,0.7125 -3.15,1.6875 -4.425,2.9625 -1.275,1.3125 -2.2875,2.775 -3,4.425 -0.7125,1.725 -1.0875,3.5625 -1.0875,5.4375 0,1.875 0.375,3.7125 1.0875,5.4 0.7125,1.6875 1.725,3.15 3,4.425 1.275,1.275 2.7375,2.2875 4.425,3 1.6875,0.7125 3.525,1.0875 5.4,1.0875 z m 0,-23.475 c 2.55,0 4.95,1.0125 6.75,2.8125 1.8,1.8 2.8125,4.2 2.8125,6.75 0,2.55 -1.0125,4.95 -2.8125,6.75 -1.8,1.8 -4.2,2.8125 -6.75,2.8125 -2.55,0 -4.95,-1.0125 -6.75,-2.8125 -1.8,-1.8 -2.8125,-4.2 -2.8125,-6.75 0,-2.55 1.0125,-4.95 2.8125,-6.75 1.8,-1.8 4.2,-2.8125 6.75,-2.8125 z"
           style="stroke-width:1.24584186px"
           id="path4320" />
        <path
           d="m 302.65508,788.94609 c 1.5,-0.525 2.55,-1.3875 3.225,-2.1375 1.4625,-1.6125 2.25,-3.8625 2.25,-6.4125 0,-2.5875 -0.7875,-4.8375 -2.25,-6.45 -1.125,-1.275 -3.2625,-2.775 -6.9375,-2.775 l -4.575,0 -3.675,0 0,27.825 4.35,0 0,-9.4125 3.1875,0 7.0125,9.4125 4.9125,0 -7.5,-10.05 z m -7.6125,-3.2625 0,-10.575 3.9,0 c 1.8,0 3.15,0.4875 4.0125,1.4625 1.05,1.125 1.2375,2.7 1.2375,3.825 0,1.0875 -0.1875,2.6625 -1.2375,3.7875 -0.8625,0.975 -2.2125,1.5 -4.0125,1.5 l -3.9,0 z"
           style="stroke-width:1.24584186px"
           id="path4322" />
        <path
           d="m 343.43281,798.99609 4.7625,0 -12.075,-29.1 -12.1125,29.1 4.8,0 2.3625,-5.9625 9.9,0 2.3625,5.9625 z m -10.6875,-9.8625 3.375,-8.475 3.375,8.475 -6.75,0 z"
           style="stroke-width:1.24584186px"
           id="path4324" />
        <path
           d="m 356.41953,798.99609 0,-27.825 -4.35,0 0,27.825 4.35,0 z"
           style="stroke-width:1.24584186px"
           id="path4326" />
        <path
           d="m 377.80625,798.99609 0,-27.825 -4.35,0 0,27.825 4.35,0 z"
           style="stroke-width:1.24584186px"
           id="path4328" />
        <path
           d="m 405.42617,800.27109 0,-29.1 -4.3875,0 0,17.85 -17.475,-19.1625 0,29.1375 4.35,0 0,-17.8875 17.5125,19.1625 z"
           style="stroke-width:1.24584186px"
           id="path4330" />
        <path
           d="m 437.19102,789.50859 c -0.4125,-1.3125 -1.2375,-2.55 -2.4375,-3.6375 -0.6,-0.5625 -1.425,-1.35 -2.1,-2.025 l -4.65,-4.4625 c -1.1625,-1.125 -1.2,-1.9875 -1.05,-2.5125 0.225,-0.7875 1.05,-1.425 2.025,-1.6125 0.7875,-0.15 2.25,-0.15 3.675,1.575 l 3.4125,-2.7375 c -1.0875,-1.3125 -2.3625,-2.25 -3.7875,-2.8125 -1.35,-0.4875 -2.775,-0.6 -4.125,-0.3 -1.2375,0.225 -2.4,0.7875 -3.3375,1.575 -1.0125,0.8625 -1.725,1.9125 -2.0625,3.1125 -0.3375,1.125 -0.3,2.3625 0.075,3.525 0.375,1.2 1.0875,2.325 2.1375,3.3375 l 3.4125,3.225 c 0.15,0.15 2.175,2.1375 3.4125,3.3 0.7875,0.75 1.65,1.875 1.275,3.15 -0.3375,1.125 -1.5,2.0625 -2.925,2.325 -0.825,0.1875 -1.725,0.1125 -2.55,-0.225 -1.0125,-0.375 -1.95,-1.125 -2.7375,-2.175 l -3.45,2.7 c 1.3125,1.6875 2.85,2.85 4.6125,3.5625 1.05,0.4125 2.175,0.6 3.3,0.6 0.5625,0 1.125,-0.0375 1.6875,-0.15 3.0375,-0.6 5.475,-2.7375 6.2625,-5.4375 0.375,-1.275 0.3375,-2.625 -0.075,-3.9 z"
           style="stroke-width:1.24584186px"
           id="path4332" />
        <path
           d="m 454.58398,798.99609 c 1.875,0 3.7125,-0.375 5.4375,-1.0875 1.65,-0.7125 3.1125,-1.725 4.425,-3 1.275,-1.275 2.25,-2.7375 2.9625,-4.425 0.7125,-1.6875 1.0875,-3.525 1.0875,-5.4 0,-1.875 -0.375,-3.7125 -1.0875,-5.4375 -0.7125,-1.65 -1.6875,-3.1125 -2.9625,-4.425 -1.3125,-1.275 -2.775,-2.25 -4.425,-2.9625 -1.725,-0.7125 -3.5625,-1.0875 -5.4375,-1.0875 -1.875,0 -3.7125,0.375 -5.4,1.0875 -1.6875,0.7125 -3.15,1.6875 -4.425,2.9625 -1.275,1.3125 -2.2875,2.775 -3,4.425 -0.7125,1.725 -1.0875,3.5625 -1.0875,5.4375 0,1.875 0.375,3.7125 1.0875,5.4 0.7125,1.6875 1.725,3.15 3,4.425 1.275,1.275 2.7375,2.2875 4.425,3 1.6875,0.7125 3.525,1.0875 5.4,1.0875 z m 0,-23.475 c 2.55,0 4.95,1.0125 6.75,2.8125 1.8,1.8 2.8125,4.2 2.8125,6.75 0,2.55 -1.0125,4.95 -2.8125,6.75 -1.8,1.8 -4.2,2.8125 -6.75,2.8125 -2.55,0 -4.95,-1.0125 -6.75,-2.8125 -1.8,-1.8 -2.8125,-4.2 -2.8125,-6.75 0,-2.55 1.0125,-4.95 2.8125,-6.75 1.8,-1.8 4.2,-2.8125 6.75,-2.8125 z"
           style="stroke-width:1.24584186px"
           id="path4334" />
        <path
           d="m 493.86934,790.78359 c -0.3,0.375 -0.6,0.7125 -0.9375,1.05 -1.8,1.8 -4.2,2.8125 -6.75,2.8125 -2.55,0 -4.95,-1.0125 -6.75,-2.8125 -1.8,-1.8 -2.8125,-4.2 -2.8125,-6.75 0,-2.55 1.0125,-4.95 2.8125,-6.75 1.8,-1.8375 4.2,-2.8125 6.75,-2.8125 2.25,0 4.35,0.75 6.0375,2.1375 l 0,-5.1375 c -0.1875,-0.075 -0.4125,-0.1875 -0.6,-0.2625 -1.725,-0.75 -3.5625,-1.0875 -5.4375,-1.0875 -1.875,0 -3.7125,0.3375 -5.4,1.0875 -1.6875,0.675 -3.15,1.6875 -4.425,2.9625 -1.275,1.275 -2.2875,2.775 -3,4.425 -0.7125,1.725 -1.0875,3.5625 -1.0875,5.4375 0,1.875 0.375,3.7125 1.0875,5.4 0.7125,1.6875 1.725,3.15 3,4.425 1.275,1.275 2.7375,2.2875 4.425,3 1.6875,0.7125 3.525,1.0875 5.4,1.0875 1.875,0 3.7125,-0.375 5.4375,-1.0875 0.7875,-0.3375 1.5375,-0.75 2.25,-1.2 l 0,-5.925 z"
           style="stroke-width:1.24584186px"
           id="path4336" />
        <path
           d="m 503.19687,798.99609 0,-27.825 -4.35,0 0,27.825 4.35,0 z"
           style="stroke-width:1.24584186px"
           id="path4338" />
        <path
           d="m 513.3043,775.07109 12.3375,0 0,-3.9 -12.375,0 -4.3125,0 0,27.825 4.3125,0 12.375,0 0,-3.9375 -12.3375,0 0,-8.625 10.1625,0 0,-3.9375 -10.1625,0 0,-7.425 z"
           style="stroke-width:1.24584186px"
           id="path4340" />
        <path
           d="m 548.66797,771.17109 -19.6875,0 0,3.9 7.65,0 0,23.925 4.3875,0 0,-23.925 7.65,0 0,-3.9 z"
           style="stroke-width:1.24584186px"
           id="path4342" />
        <path
           d="m 574.61738,771.17109 -5.025,0 -6.9,9.525 -6.9,-9.525 -5.0625,0 9.7875,13.275 0,14.55 4.35,0 0,-14.55 9.75,-13.275 z"
           style="stroke-width:1.24584186px"
           id="path4344" />
        <path
           d="m 580.63613,778.14609 1.725,-6.975 -3.9,0 -0.45,6.975 2.625,0 z"
           style="stroke-width:1.24584186px"
           id="path4346" />
        <path
           d="m 601.18027,789.50859 c -0.4125,-1.3125 -1.2375,-2.55 -2.4375,-3.6375 -0.6,-0.5625 -1.425,-1.35 -2.1,-2.025 l -4.65,-4.4625 c -1.1625,-1.125 -1.2,-1.9875 -1.05,-2.5125 0.225,-0.7875 1.05,-1.425 2.025,-1.6125 0.7875,-0.15 2.25,-0.15 3.675,1.575 l 3.4125,-2.7375 c -1.0875,-1.3125 -2.3625,-2.25 -3.7875,-2.8125 -1.35,-0.4875 -2.775,-0.6 -4.125,-0.3 -1.2375,0.225 -2.4,0.7875 -3.3375,1.575 -1.0125,0.8625 -1.725,1.9125 -2.0625,3.1125 -0.3375,1.125 -0.3,2.3625 0.075,3.525 0.375,1.2 1.0875,2.325 2.1375,3.3375 l 3.4125,3.225 c 0.15,0.15 2.175,2.1375 3.4125,3.3 0.7875,0.75 1.65,1.875 1.275,3.15 -0.3375,1.125 -1.5,2.0625 -2.925,2.325 -0.825,0.1875 -1.725,0.1125 -2.55,-0.225 -1.0125,-0.375 -1.95,-1.125 -2.7375,-2.175 l -3.45,2.7 c 1.3125,1.6875 2.85,2.85 4.6125,3.5625 1.05,0.4125 2.175,0.6 3.3,0.6 0.5625,0 1.125,-0.0375 1.6875,-0.15 3.0375,-0.6 5.475,-2.7375 6.2625,-5.4375 0.375,-1.275 0.3375,-2.625 -0.075,-3.9 z"
           style="stroke-width:1.24584186px"
           id="path4348" />
        <path
           d="m 632.23496,789.50859 c -0.4125,-1.3125 -1.2375,-2.55 -2.4375,-3.6375 -0.6,-0.5625 -1.425,-1.35 -2.1,-2.025 l -4.65,-4.4625 c -1.1625,-1.125 -1.2,-1.9875 -1.05,-2.5125 0.225,-0.7875 1.05,-1.425 2.025,-1.6125 0.7875,-0.15 2.25,-0.15 3.675,1.575 l 3.4125,-2.7375 c -1.0875,-1.3125 -2.3625,-2.25 -3.7875,-2.8125 -1.35,-0.4875 -2.775,-0.6 -4.125,-0.3 -1.2375,0.225 -2.4,0.7875 -3.3375,1.575 -1.0125,0.8625 -1.725,1.9125 -2.0625,3.1125 -0.3375,1.125 -0.3,2.3625 0.075,3.525 0.375,1.2 1.0875,2.325 2.1375,3.3375 l 3.4125,3.225 c 0.15,0.15 2.175,2.1375 3.4125,3.3 0.7875,0.75 1.65,1.875 1.275,3.15 -0.3375,1.125 -1.5,2.0625 -2.925,2.325 -0.825,0.1875 -1.725,0.1125 -2.55,-0.225 -1.0125,-0.375 -1.95,-1.125 -2.7375,-2.175 l -3.45,2.7 c 1.3125,1.6875 2.85,2.85 4.6125,3.5625 1.05,0.4125 2.175,0.6 3.3,0.6 0.5625,0 1.125,-0.0375 1.6875,-0.15 3.0375,-0.6 5.475,-2.7375 6.2625,-5.4375 0.375,-1.275 0.3375,-2.625 -0.075,-3.9 z"
           style="fill:#ffffff;fill-opacity:1;stroke:#ffffff;stroke-opacity:1"
           id="path4350" />
        <path
           d="m 654.35645,771.17109 -19.6875,0 0,3.9 7.65,0 0,23.925 4.3875,0 0,-23.925 7.65,0 0,-3.9 z"
           style="fill:#ffffff;fill-opacity:1;stroke:#ffffff;stroke-opacity:1"
           id="path4352" />
        <path
           d="m 668.41836,798.99609 c 2.625,0 5.0625,-0.7875 6.9,-2.2125 1.05,-0.825 1.875,-1.8375 2.475,-3 0.6,-1.275 0.9375,-2.7 0.9375,-4.2375 l 0,-18.375 -4.3875,0 0,18.375 c 0,1.65 -0.5625,2.925 -1.6875,3.7875 -1.0875,0.825 -2.625,1.3125 -4.2375,1.3125 -1.65,0 -3.1875,-0.4875 -4.2375,-1.3125 -1.125,-0.8625 -1.725,-2.1375 -1.725,-3.7875 l 0,-18.375 -4.35,0 0,18.375 c 0,1.5375 0.3,2.9625 0.9375,4.2375 0.5625,1.1625 1.3875,2.175 2.475,3 1.8375,1.425 4.275,2.2125 6.9,2.2125 z"
           style="fill:#ffffff;fill-opacity:1;stroke:#ffffff;stroke-opacity:1"
           id="path4354" />
        <path
           d="m 701.36035,775.33359 c -1.2,-1.35 -2.7,-2.4 -4.4625,-3.075 -1.8,-0.75 -3.825,-1.0875 -6.075,-1.0875 l -2.25,0 -4.35,0 0,27.825 1.4625,0 5.1375,0 c 2.25,0 4.275,-0.375 6.075,-1.0875 1.7625,-0.675 3.2625,-1.725 4.4625,-3.075 2.2125,-2.4375 3.375,-5.8125 3.375,-9.75 0,-3.9375 -1.1625,-7.3125 -3.375,-9.75 z m -3.225,16.575 c -1.65,1.8 -4.0875,2.7375 -7.3125,2.7375 l -2.25,0 0,-19.125 2.25,0 c 3.225,0 5.6625,0.9 7.3125,2.7375 1.4625,1.6125 2.25,3.975 2.25,6.825 0,2.8125 -0.7875,5.2125 -2.25,6.825 z"
           style="fill:#ffffff;fill-opacity:1;stroke:#ffffff;stroke-opacity:1"
           id="path4356" />
        <path
           d="m 713.91465,775.07109 12.3375,0 0,-3.9 -12.375,0 -4.3125,0 0,27.825 4.3125,0 12.375,0 0,-3.9375 -12.3375,0 0,-8.625 10.1625,0 0,-3.9375 -10.1625,0 0,-7.425 z"
           style="fill:#ffffff;fill-opacity:1;stroke:#ffffff;stroke-opacity:1"
           id="path4358" />
        <path
           d="m 753.25332,800.27109 0,-29.1 -4.3875,0 0,17.85 -17.475,-19.1625 0,29.1375 4.35,0 0,-17.8875 17.5125,19.1625 z"
           style="fill:#ffffff;fill-opacity:1;stroke:#ffffff;stroke-opacity:1"
           id="path4360" />
        <path
           d="m 776.96387,771.17109 -19.6875,0 0,3.9 7.65,0 0,23.925 4.3875,0 0,-23.925 7.65,0 0,-3.9 z"
           style="fill:#ffffff;fill-opacity:1;stroke:#ffffff;stroke-opacity:1"
           id="path4362" />
        <path
           d="m 808.79258,787.07109 c -0.45,-1.0125 -1.0875,-1.9125 -1.9125,-2.7375 -0.4125,-0.375 -0.825,-0.7125 -1.275,-1.0125 0,0 0,0 0,0 1.6875,-1.7625 2.175,-3.6 2.175,-5.1 0,-1.0875 -0.1875,-2.0625 -0.5625,-2.925 -0.4125,-0.9375 -1.05,-1.7625 -1.9125,-2.4 -1.575,-1.1625 -3.825,-1.725 -6.9,-1.725 l -1.8,0 -4.35,0 0,27.825 3.675,0 2.475,0 c 3.15,0 5.7375,-0.6375 7.65,-1.8375 1.0875,-0.7125 1.95,-1.6125 2.55,-2.6625 0.6,-1.125 0.9,-2.3625 0.9,-3.75 0,-1.3125 -0.225,-2.55 -0.7125,-3.675 z m -10.3875,-12 c 1.4625,0 3.4875,0.1875 4.5375,0.975 0.4125,0.3 0.9,0.825 0.9,2.175 0,0.9 -0.375,1.6875 -1.1625,2.4375 -0.75,0.75 -1.8375,1.3875 -3.225,1.95 -0.975,0.4125 -1.9875,0.7125 -2.85,0.9 l 0,-8.4375 1.8,0 z m 5.5125,18.7875 c -1.2375,0.7875 -3.15,1.2 -5.5125,1.2 l -1.8,0 0,-7.5 c 1.1625,-0.2625 2.7,-0.6375 4.2375,-1.275 0.4125,-0.15 0.7875,-0.3375 1.1625,-0.4875 0.8625,0.375 1.575,0.825 2.1375,1.3875 0.975,0.9375 1.4625,2.1 1.4625,3.5625 0,1.3875 -0.525,2.3625 -1.6875,3.1125 z"
           style="fill:#ffffff;fill-opacity:1;stroke:#ffffff;stroke-opacity:1"
           id="path4364" />
        <path
           d="m 826.26348,788.94609 c 1.5,-0.525 2.55,-1.3875 3.225,-2.1375 1.4625,-1.6125 2.25,-3.8625 2.25,-6.4125 0,-2.5875 -0.7875,-4.8375 -2.25,-6.45 -1.125,-1.275 -3.2625,-2.775 -6.9375,-2.775 l -4.575,0 -3.675,0 0,27.825 4.35,0 0,-9.4125 3.1875,0 7.0125,9.4125 4.9125,0 -7.5,-10.05 z m -7.6125,-3.2625 0,-10.575 3.9,0 c 1.8,0 3.15,0.4875 4.0125,1.4625 1.05,1.125 1.2375,2.7 1.2375,3.825 0,1.0875 -0.1875,2.6625 -1.2375,3.7875 -0.8625,0.975 -2.2125,1.5 -4.0125,1.5 l -3.9,0 z"
           style="fill:#ffffff;fill-opacity:1;stroke:#ffffff;stroke-opacity:1"
           id="path4366" />
        <path
           d="m 855.17598,798.99609 4.7625,0 -12.075,-29.1 -12.1125,29.1 4.8,0 2.3625,-5.9625 9.9,0 2.3625,5.9625 z m -10.6875,-9.8625 3.375,-8.475 3.375,8.475 -6.75,0 z"
           style="fill:#ffffff;fill-opacity:1;stroke:#ffffff;stroke-opacity:1"
           id="path4368" />
        <path
           d="m 885.6752,800.27109 0,-29.1 -4.3875,0 0,17.85 -17.475,-19.1625 0,29.1375 4.35,0 0,-17.8875 17.5125,19.1625 z"
           style="fill:#ffffff;fill-opacity:1;stroke:#ffffff;stroke-opacity:1"
           id="path4370" />
        <path
           d="m 911.93574,790.78359 c -0.3,0.375 -0.6,0.7125 -0.9375,1.05 -1.8,1.8 -4.2,2.8125 -6.75,2.8125 -2.55,0 -4.95,-1.0125 -6.75,-2.8125 -1.8,-1.8 -2.8125,-4.2 -2.8125,-6.75 0,-2.55 1.0125,-4.95 2.8125,-6.75 1.8,-1.8375 4.2,-2.8125 6.75,-2.8125 2.25,0 4.35,0.75 6.0375,2.1375 l 0,-5.1375 c -0.1875,-0.075 -0.4125,-0.1875 -0.6,-0.2625 -1.725,-0.75 -3.5625,-1.0875 -5.4375,-1.0875 -1.875,0 -3.7125,0.3375 -5.4,1.0875 -1.6875,0.675 -3.15,1.6875 -4.425,2.9625 -1.275,1.275 -2.2875,2.775 -3,4.425 -0.7125,1.725 -1.0875,3.5625 -1.0875,5.4375 0,1.875 0.375,3.7125 1.0875,5.4 0.7125,1.6875 1.725,3.15 3,4.425 1.275,1.275 2.7375,2.2875 4.425,3 1.6875,0.7125 3.525,1.0875 5.4,1.0875 1.875,0 3.7125,-0.375 5.4375,-1.0875 0.7875,-0.3375 1.5375,-0.75 2.25,-1.2 l 0,-5.925 z"
           style="fill:#ffffff;fill-opacity:1;stroke:#ffffff;stroke-opacity:1"
           id="path4372" />
        <path
           d="m 935.98086,771.17109 -4.35,0 0,11.8875 -11.1,0 0,-11.8875 -4.35,0 0,27.825 4.35,0 0,-12 11.1,0 0,12 4.35,0 0,-27.825 z"
           style="fill:#ffffff;fill-opacity:1;stroke:#ffffff;stroke-opacity:1"
           id="path4374" />
      </g>
    </g>
  </g>
</svg>
